M48
;GenerationSoftware,Autodesk,EAGLE,9.6.2*%
;CreationDate,2021-04-30T12:01:01Z*%
FMAT,2
ICI,OFF
METRIC,TZ,000.000
T6C0.800
T5C0.813
T4C1.000
T3C1.016
T2C1.270
T1C5.000
%
G90
M71
T1
X82207Y53162
X2946Y53162
X2959Y2959
X82245Y2934
T2
X17780Y5080
X47002Y50800
X43192Y50800
X39382Y50800
X35572Y50800
X5080Y36830
X5080Y33020
X5080Y29210
X28575Y50800
X24765Y50800
X20955Y50800
X5080Y19050
X17145Y50800
X13335Y50800
X9525Y50800
X80645Y43180
X80645Y46990
X80645Y29210
X80645Y33020
X80645Y15240
X80645Y19050
X13970Y5080
X10160Y5080
X5080Y15240
T3
X72716Y2687
X70176Y5227
X70176Y2687
X67636Y5227
X67636Y2687
X65096Y5227
X65096Y2687
X62556Y5227
X62556Y2687
X60016Y5227
X60016Y2687
X57476Y5227
X57476Y2687
X54936Y5227
X54936Y2687
X52396Y5227
X52396Y2687
X49856Y5227
X49856Y2687
X47316Y5227
X47316Y2687
X44776Y5227
X44776Y2687
X42236Y5227
X42236Y2687
X39696Y5227
X39696Y2687
X37156Y5227
X37156Y2687
X34616Y5227
X34616Y2687
X32076Y5227
X32076Y2687
X29536Y5227
X29536Y2687
X26996Y5227
X26996Y2687
X75256Y5227
X75256Y2687
X72716Y5227
T4
X39370Y15240
X39370Y17780
X39370Y20320
X39370Y22860
X39370Y25400
X39370Y27940
T5
X69596Y33020
X69596Y41910
X69596Y46990
X69596Y13970
X69596Y19050
X69596Y27940
T6
X29210Y37846
X31750Y21590
X31750Y54610
X76200Y37160
X52070Y24130
X12700Y12700
X49530Y38100
X49530Y11430
X76200Y9208
X52070Y11430
X46990Y15240
X46990Y29210
X46990Y43180
X12700Y27940
X53340Y20320
X53340Y34290
X53340Y48006
X13970Y37846
X19050Y37846
X24130Y37846
X76200Y23190
M30